<svg width="156" height="32" viewBox="0 0 156 32" fill="none" xmlns="http://www.w3.org/2000/svg">
<path d="M63.4547 1.84204V24.6401H59.8116V22.5516C58.5462 24.1096 56.7226 25.016 54.4399 25.016C49.7795 25.016 46.3804 21.3361 46.3804 16.4407C46.3804 11.5118 49.6844 7.83186 54.3448 7.83186C56.5075 7.83186 58.265 8.6422 59.5304 10.0164V1.84204H63.4547ZM59.6875 16.4365C59.6875 13.4123 57.7729 11.3531 54.9651 11.3531C52.2772 11.3531 50.3047 13.5042 50.3047 16.4365C50.3047 19.3687 52.2813 21.5199 54.9651 21.5199C57.7729 21.5199 59.6875 19.4314 59.6875 16.4365Z" fill="white"/>
<path d="M74.8799 21.6452C77.1047 21.6452 78.275 20.8015 79.0193 19.3353L82.1083 21.3319C80.8719 23.3578 78.7133 25.0453 74.76 25.0453C69.5744 25.0453 66.1753 21.3319 66.1753 16.4365C66.1753 11.6664 69.8474 7.8277 74.5119 7.8277C79.6355 7.8277 82.7534 11.8836 82.7534 16.094C82.7534 16.7164 82.7245 17.3429 82.6625 17.6854H70.0335C70.5545 20.1499 72.4402 21.6452 74.8799 21.6452ZM78.9862 14.9119C78.552 12.4475 76.8855 10.9521 74.6029 10.9521C72.3202 10.9521 70.5255 12.3848 70.0335 14.9119H78.9862Z" fill="white"/>
<path d="M100.043 8.20361L93.8364 24.6401H89.3291L83.1221 8.20361H87.1994L91.5828 20.8349L95.9661 8.20361H100.043Z" fill="white"/>
<path d="M117.58 8.20365V24.6401H113.937V22.4263C112.734 24.047 110.91 25.0161 108.565 25.0161C103.905 25.0161 100.506 21.3361 100.506 16.4407C100.506 11.5118 103.901 8.08252 108.565 8.08252C110.91 8.08252 112.734 8.95551 113.937 10.5469V8.20783H117.58V8.20365ZM113.813 16.4365C113.813 13.4124 111.898 11.3531 109.091 11.3531C106.403 11.3531 104.43 13.5043 104.43 16.4365C104.43 19.3688 106.407 21.5199 109.091 21.5199C111.903 21.5199 113.813 19.4314 113.813 16.4365Z" fill="white"/>
<path d="M129.78 7.83185V11.5452C126.939 11.5452 125.148 13.074 125.148 15.2878V24.6443H121.228V8.20778H124.933V10.0498C126.041 8.73409 127.741 7.83185 129.78 7.83185Z" fill="white"/>
<path d="M132.062 8.20361H135.983V24.6401H132.062V8.20361Z" fill="white"/>
<path d="M155.869 8.20365V24.6401H152.226V22.4263C151.022 24.047 149.199 25.0161 146.854 25.0161C142.194 25.0161 138.794 21.3361 138.794 16.4407C138.794 11.5118 142.189 8.08252 146.854 8.08252C149.199 8.08252 151.022 8.95551 152.226 10.5469V8.20783H155.869V8.20365ZM152.102 16.4365C152.102 13.4124 150.187 11.3531 147.379 11.3531C144.691 11.3531 142.719 13.5043 142.719 16.4365C142.719 19.3688 144.695 21.5199 147.379 21.5199C150.187 21.5199 152.102 19.4314 152.102 16.4365Z" fill="white"/>
<path d="M135.983 1.84204H132.062V5.80183H135.983V1.84204Z" fill="white"/>
<path d="M6.16969 30.2206C6.18623 31.1981 7.01741 31.9624 7.98505 31.9624H16.9626C17.9303 31.9624 18.7656 31.1981 18.778 30.2206C18.7945 29.2307 18.0006 28.4203 17.0247 28.4203H7.91889C6.94298 28.4203 6.15315 29.2265 6.16969 30.2206Z" fill="#5E49FF"/>
<path d="M12.269 24.5023C12.269 25.4797 13.0961 26.2734 14.1134 26.2734H23.6823C24.6996 26.2734 25.5266 25.4797 25.5266 24.5023C25.5266 23.5249 24.6996 22.7313 23.6823 22.7313H14.1134C13.092 22.7313 12.269 23.5249 12.269 24.5023Z" fill="#5E49FF"/>
<path d="M7.26974 3.58386H1.77401C0.793965 3.58386 0 2.78188 0 1.79193C0 0.801987 0.793965 0 1.77401 0H7.26974C8.24979 0 9.04375 0.801987 9.04375 1.79193C9.03961 2.78188 8.24979 3.58386 7.26974 3.58386Z" fill="#3BD42D"/>
<path d="M12.571 9.21448H7.07528C6.09523 9.21448 5.30127 8.41249 5.30127 7.42255C5.30127 6.4326 6.09523 5.63062 7.07528 5.63062H12.571C13.5511 5.63062 14.345 6.4326 14.345 7.42255C14.345 8.41249 13.5511 9.21448 12.571 9.21448Z" fill="#3BD42D"/>
<path d="M31.2005 9.21448H17.546C16.5659 9.21448 15.772 8.41249 15.772 7.42255C15.772 6.4326 16.5659 5.63062 17.546 5.63062H31.2005C32.1806 5.63062 32.9745 6.4326 32.9745 7.42255C32.9704 8.41249 32.1806 9.21448 31.2005 9.21448Z" fill="#25CBD3"/>
<path d="M26.887 14.9327H13.2325C12.2525 14.9327 11.4585 14.1308 11.4585 13.1408C11.4585 12.1509 12.2525 11.3489 13.2325 11.3489H26.887C27.8671 11.3489 28.6611 12.1509 28.6611 13.1408C28.6569 14.1308 27.863 14.9327 26.887 14.9327Z" fill="#5E49FF"/>
<path d="M33.8924 20.6219H20.2379C19.2578 20.6219 18.4639 19.8199 18.4639 18.83C18.4639 17.84 19.2578 17.038 20.2379 17.038H33.8924C34.8725 17.038 35.6664 17.84 35.6664 18.83C35.6664 19.8199 34.8725 20.6219 33.8924 20.6219Z" fill="#25CBD3"/>
<path d="M20.2092 3.58386H12.377C11.397 3.58386 10.603 2.78188 10.603 1.79193C10.603 0.801987 11.397 0 12.377 0H20.2092C21.1892 0 21.9832 0.801987 21.9832 1.79193C21.9832 2.78188 21.1892 3.58386 20.2092 3.58386Z" fill="#5E49FF"/>
<path d="M26.941 3.58386H25.2662C24.2862 3.58386 23.4922 2.78188 23.4922 1.79193C23.4922 0.801987 24.2862 0 25.2662 0H26.941C27.921 0 28.715 0.801987 28.715 1.79193C28.715 2.78188 27.921 3.58386 26.941 3.58386Z" fill="#25CBD3"/>
<path d="M33.7271 14.9327H32.0523C31.0723 14.9327 30.2783 14.1308 30.2783 13.1408C30.2783 12.1509 31.0723 11.3489 32.0523 11.3489H33.7271C34.7072 11.3489 35.5011 12.1509 35.5011 13.1408C35.5011 14.1308 34.7072 14.9327 33.7271 14.9327Z" fill="#25CBD3"/>
<path d="M31.2 26.3109H28.7809C27.8008 26.3109 27.0068 25.5089 27.0068 24.519C27.0068 23.529 27.8008 22.7271 28.7809 22.7271H31.2C32.18 22.7271 32.974 23.529 32.974 24.519C32.9698 25.5089 32.18 26.3109 31.2 26.3109Z" fill="#25CBD3"/>
<path d="M3.14691 31.975H1.77402C0.793965 31.975 0 31.173 0 30.1831C0 29.1931 0.793965 28.3911 1.77402 28.3911H3.14691C4.12696 28.3911 4.92093 29.1931 4.92093 30.1831C4.92093 31.173 4.12696 31.975 3.14691 31.975Z" fill="#3BD42D"/>
<path d="M26.9408 32.0001H22.024C21.044 32.0001 20.25 31.1981 20.25 30.2081C20.25 29.2182 21.044 28.4162 22.024 28.4162H26.9408C27.9208 28.4162 28.7148 29.2182 28.7148 30.2081C28.7148 31.1981 27.9208 32.0001 26.9408 32.0001Z" fill="#25CBD3"/>
</svg>
